<?xml version="1.0" encoding="UTF-8" standalone="no"?>
<svg
   xmlns:dc="http://purl.org/dc/elements/1.1/"
   xmlns:cc="http://creativecommons.org/ns#"
   xmlns:rdf="http://www.w3.org/1999/02/22-rdf-syntax-ns#"
   xmlns:svg="http://www.w3.org/2000/svg"
   xmlns="http://www.w3.org/2000/svg"
   viewBox="0 0 1322.8347 629.888"
   height="629.888"
   width="1322.8347"
   xml:space="preserve"
   id="svg2"
   version="1.1"><metadata
     id="metadata8"><rdf:RDF><cc:Work
         rdf:about=""><dc:format>image/svg+xml</dc:format><dc:type
           rdf:resource="http://purl.org/dc/dcmitype/StillImage" /></cc:Work></rdf:RDF></metadata><defs
     id="defs6"><clipPath
       id="clipPath20"
       clipPathUnits="userSpaceOnUse"><path
         id="path18"
         d="M 0,472.416 H 992.126 V 0 H 0 Z" /></clipPath></defs><g
     transform="matrix(1.3333333,0,0,-1.3333333,0,629.888)"
     id="g10"><path
       id="path12"
       style="fill:#ee3338;fill-opacity:1;fill-rule:nonzero;stroke:none"
       d="M 0,0 H 992.126 V 472.415 H 0 Z" /><g
       id="g14"><g
         clip-path="url(#clipPath20)"
         id="g16"><g
           transform="translate(394.5915,173.0959)"
           id="g22"><path
             id="path24"
             style="fill:#ffffff;fill-opacity:1;fill-rule:nonzero;stroke:none"
             d="m 0,0 h -21.683 l -27.494,37.976 c -2.036,-0.081 -3.693,-0.121 -4.971,-0.121 -0.52,0 -1.078,0.01 -1.677,0.031 -0.599,0.02 -1.218,0.049 -1.857,0.09 v -23.6 c 0,-5.113 0.559,-8.287 1.678,-9.524 1.516,-1.758 3.792,-2.636 6.827,-2.636 h 3.176 V 0 h -34.802 v 2.216 h 3.055 c 3.434,0 5.89,1.118 7.368,3.355 0.838,1.237 1.257,4.172 1.257,8.805 v 52.471 c 0,5.111 -0.559,8.285 -1.677,9.524 -1.557,1.756 -3.874,2.636 -6.948,2.636 h -3.055 v 2.216 h 29.59 c 8.625,0 14.984,-0.629 19.077,-1.888 4.093,-1.257 7.568,-3.574 10.423,-6.948 2.854,-3.374 4.283,-7.397 4.283,-12.069 0,-4.993 -1.628,-9.325 -4.881,-12.998 -3.256,-3.674 -8.297,-6.271 -15.126,-7.787 l 16.773,-23.301 c 3.832,-5.351 7.127,-8.905 9.882,-10.661 C -8.025,3.813 -4.432,2.695 0,2.216 Z m -57.682,41.749 v 0 c 0.758,0 1.417,-0.01 1.977,-0.029 0.558,-0.021 1.018,-0.031 1.378,-0.031 7.746,0 13.586,1.678 17.519,5.032 3.933,3.355 5.901,7.627 5.901,12.818 0,5.071 -1.588,9.194 -4.762,12.369 -3.175,3.175 -7.378,4.762 -12.609,4.762 -2.316,0 -5.45,-0.38 -9.404,-1.138 z" /></g><g
           transform="translate(428.5647,256.1751)"
           id="g26"><path
             id="path28"
             style="fill:#ffffff;fill-opacity:1;fill-rule:nonzero;stroke:none"
             d="m 0,0 c 10.542,0 19.677,-4.003 27.403,-12.01 7.727,-8.006 11.591,-18 11.591,-29.978 0,-12.34 -3.894,-22.583 -11.68,-30.729 -7.787,-8.146 -17.212,-12.219 -28.273,-12.219 -11.182,0 -20.574,3.972 -28.181,11.92 -7.607,7.946 -11.412,18.228 -11.412,30.848 0,12.898 4.392,23.419 13.178,31.565 C -19.748,-3.533 -10.623,0 0,0 m -1.139,-4.373 v 0 c -7.268,0 -13.097,-2.695 -17.491,-8.086 -5.47,-6.708 -8.205,-16.531 -8.205,-29.471 0,-13.257 2.835,-23.46 8.506,-30.607 4.351,-5.431 10.102,-8.147 17.25,-8.147 7.627,0 13.927,2.975 18.898,8.926 4.973,5.949 7.458,15.333 7.458,28.152 0,13.897 -2.736,24.259 -8.207,31.087 -4.392,5.43 -10.462,8.146 -18.209,8.146" /></g><g
           transform="translate(474.6946,252.1026)"
           id="g30"><path
             id="path32"
             style="fill:#ffffff;fill-opacity:1;fill-rule:nonzero;stroke:none"
             d="M 0,0 V 2.216 H 34.801 V 0 h -2.935 c -3.315,0 -5.73,-0.98 -7.247,-2.935 -0.958,-1.279 -1.437,-4.354 -1.437,-9.225 v -39.713 c 0,-6.109 -0.67,-11.061 -2.007,-14.855 -1.339,-3.794 -3.645,-7.097 -6.919,-9.913 -3.275,-2.815 -7.228,-4.222 -11.859,-4.222 -3.754,0 -6.71,0.928 -8.865,2.784 -2.157,1.857 -3.236,3.984 -3.236,6.38 0,1.955 0.5,3.433 1.499,4.432 1.317,1.238 2.854,1.856 4.611,1.856 1.278,0 2.427,-0.418 3.445,-1.256 1.018,-0.839 2.306,-3.077 3.863,-6.71 0.918,-2.156 2.097,-3.234 3.535,-3.234 1.077,0 2.085,0.658 3.025,1.977 0.937,1.317 1.407,3.654 1.407,7.007 v 55.467 c 0,4.112 -0.261,6.828 -0.779,8.146 -0.4,0.998 -1.238,1.857 -2.515,2.576 C 6.668,-0.48 4.852,0 2.935,0 Z" /></g><g
           transform="translate(545.2665,256.1751)"
           id="g34"><path
             id="path36"
             style="fill:#ffffff;fill-opacity:1;fill-rule:nonzero;stroke:none"
             d="m 0,0 c 10.542,0 19.677,-4.003 27.403,-12.01 7.727,-8.006 11.591,-18 11.591,-29.978 0,-12.34 -3.894,-22.583 -11.681,-30.729 -7.787,-8.146 -17.212,-12.219 -28.272,-12.219 -11.182,0 -20.575,3.972 -28.182,11.92 -7.606,7.946 -11.411,18.228 -11.411,30.848 0,12.898 4.392,23.419 13.178,31.565 C -19.748,-3.533 -10.623,0 0,0 m -1.139,-4.373 v 0 c -7.268,0 -13.097,-2.695 -17.491,-8.086 -5.47,-6.708 -8.205,-16.531 -8.205,-29.471 0,-13.257 2.835,-23.46 8.506,-30.607 4.351,-5.431 10.101,-8.147 17.25,-8.147 7.627,0 13.927,2.975 18.898,8.926 4.973,5.949 7.458,15.333 7.458,28.152 0,13.897 -2.736,24.259 -8.207,31.087 -4.392,5.43 -10.462,8.146 -18.209,8.146" /></g><g
           transform="translate(766.3963,253.1665)"
           id="g38"><path
             id="path40"
             style="fill:#ffffff;fill-opacity:1;fill-rule:nonzero;stroke:none"
             d="m 0,0 c -1.523,-0.065 -1.809,-0.514 -1.809,-2.159 v -6.749 c 0,-2.082 -0.252,-3.617 -0.92,-4.756 -0.745,-1.26 -2.269,-2.094 -4.109,-2.094 -1.436,0 -2.783,0.296 -3.77,1.217 -1.326,1.238 -1.665,2.509 -1.665,5.566 v 7.046 c 0,1.634 -0.286,1.864 -1.82,1.929 v 0.449 c 0.635,-0.043 1.709,-0.065 2.872,-0.065 1.04,0 2.158,0.022 2.86,0.065 V 0 c -1.534,-0.065 -1.82,-0.295 -1.82,-1.929 v -7.429 c 0,-3.079 0.351,-5.61 3.541,-5.61 3.385,0 4.306,2.465 4.306,5.808 v 7.001 c 0,1.645 -0.516,2.094 -2.039,2.159 v 0.449 c 0.538,-0.043 1.523,-0.065 2.291,-0.065 0.767,0 1.588,0.022 2.082,0.065 z" /></g><g
           transform="translate(780.2388,253.1665)"
           id="g42"><path
             id="path44"
             style="fill:#ffffff;fill-opacity:1;fill-rule:nonzero;stroke:none"
             d="m 0,0 c -1.524,-0.065 -1.818,-0.514 -1.818,-2.159 v -13.39 h -0.516 l -9.424,14.563 v -11.846 c 0,-1.644 0.297,-2.092 2.038,-2.158 v -0.45 c -0.536,0.044 -1.524,0.067 -2.29,0.067 -0.755,0 -1.589,-0.023 -2.081,-0.067 v 0.45 c 1.522,0.066 1.818,0.514 1.818,2.158 v 10.903 c 0,1.634 -0.296,1.864 -1.818,1.929 v 0.449 c 0.492,-0.043 1.326,-0.065 2.081,-0.065 0.658,0 1.26,0.022 1.754,0.065 l 7.922,-12.207 v 9.599 c 0,1.645 -0.284,2.094 -2.038,2.159 v 0.449 c 0.537,-0.043 1.524,-0.065 2.29,-0.065 0.756,0 1.59,0.022 2.082,0.065 z" /></g><g
           transform="translate(764.2922,216.1052)"
           id="g46"><path
             id="path48"
             style="fill:#ffffff;fill-opacity:1;fill-rule:nonzero;stroke:none"
             d="m 0,0 c -1.523,0.066 -3.639,0.066 -5.139,0.066 -1.348,0 -4.307,0 -6.509,-0.066 v 0.449 c 1.522,0.067 1.818,0.296 1.818,1.929 v 11.133 c 0,1.634 -0.296,1.864 -1.818,1.928 v 0.449 c 2.202,-0.064 5.161,-0.064 6.509,-0.064 1.369,0 3.298,0 4.69,0.064 -0.111,-1.051 -0.153,-2.136 -0.153,-2.65 0,-0.538 0.022,-1.052 0.064,-1.392 h -0.514 c -0.296,2.652 -0.636,3.529 -3.014,3.529 h -1.863 c -1.523,0 -1.819,-0.23 -1.819,-1.864 V 8.218 h 1.491 c 1.951,0 1.906,1.885 2.082,2.959 h 0.515 c -0.066,-0.953 -0.076,-1.6 -0.076,-2.114 0,-0.417 0.01,-0.746 0.01,-1.074 0,-0.734 0.022,-1.48 0.131,-3.189 H -4.109 C -4.285,6.235 -4.306,7.769 -6.257,7.769 H -7.748 V 2.378 c 0,-1.633 0.296,-1.862 1.819,-1.862 h 1.644 c 2.806,0 3.364,1.007 3.683,3.976 h 0.513 C -0.132,4.087 -0.153,3.496 -0.153,2.872 -0.153,2.312 -0.111,1.139 0,0" /></g><g
           transform="translate(772.0449,231.4134)"
           id="g50"><path
             id="path52"
             style="fill:#ffffff;fill-opacity:1;fill-rule:nonzero;stroke:none"
             d="m 0,0 c 0.361,-0.23 0.558,-0.317 0.766,-0.317 0.286,0 0.406,0.339 0.494,0.986 H 1.774 C 1.709,-0.121 1.665,-1.085 1.665,-3.912 H 1.151 c -0.165,2.137 -1.195,4.317 -3.682,4.317 -1.6,0 -2.741,-1.062 -2.741,-2.607 0,-2.038 1.754,-2.85 3.771,-4.11 2.334,-1.457 4.043,-2.64 4.043,-5.052 0,-2.848 -2.158,-4.263 -4.767,-4.263 -1.589,0 -2.422,0.428 -3.069,0.834 -0.361,0.23 -0.58,0.317 -0.766,0.317 -0.286,0 -0.405,-0.339 -0.493,-0.986 h -0.516 c 0.066,0.921 0.088,2.213 0.088,5.381 h 0.516 c 0.186,-2.718 1.216,-5.096 4.087,-5.096 1.458,0 2.915,0.876 2.915,2.992 0,1.818 -1.413,2.848 -3.495,4.097 -2.138,1.282 -4,2.499 -4,5.031 0,2.652 2.005,3.889 4.218,3.889 C -1.261,0.832 -0.603,0.405 0,0" /></g><g
           transform="translate(787.0073,229.1238)"
           id="g54"><path
             id="path56"
             style="fill:#ffffff;fill-opacity:1;fill-rule:nonzero;stroke:none"
             d="M 0,0 C 0,-0.723 0.022,-1.37 0.066,-1.842 H -0.45 c -0.318,3.124 -0.646,4.198 -3.452,4.198 h -1.215 v -12.767 c 0,-1.82 0.383,-2.092 2.268,-2.158 v -0.45 c -0.789,0.045 -2.082,0.066 -3.298,0.066 -1.348,0 -2.608,-0.021 -3.321,-0.066 v 0.45 c 1.885,0.066 2.269,0.338 2.269,2.158 V 2.356 h -1.217 c -2.805,0 -3.144,-1.074 -3.452,-4.198 h -0.514 c 0.042,0.472 0.065,1.119 0.065,1.842 0,0.558 -0.043,1.731 -0.164,2.87 1.862,-0.065 4.492,-0.065 6.334,-0.065 1.84,0 4.438,0 6.3,0.065 C 0.044,1.731 0,0.558 0,0" /></g><g
           transform="translate(792.6783,231.5446)"
           id="g58"><path
             id="path60"
             style="fill:#ffffff;fill-opacity:1;fill-rule:nonzero;stroke:none"
             d="m 0,0 c -1.523,-0.065 -1.819,-0.295 -1.819,-1.929 v -11.133 c 0,-1.632 0.296,-1.862 1.819,-1.928 v -0.449 c -0.691,0.044 -1.819,0.066 -2.85,0.066 -1.161,0 -2.245,-0.022 -2.869,-0.066 v 0.449 c 1.521,0.066 1.818,0.296 1.818,1.928 v 11.133 c 0,1.634 -0.297,1.864 -1.818,1.929 v 0.449 c 0.624,-0.043 1.708,-0.065 2.869,-0.065 1.031,0 2.159,0.022 2.85,0.065 z" /></g><g
           transform="translate(798.4837,231.5446)"
           id="g62"><path
             id="path64"
             style="fill:#ffffff;fill-opacity:1;fill-rule:nonzero;stroke:none"
             d="m 0,0 c -1.524,-0.065 -1.82,-0.295 -1.82,-1.929 v -11.133 c 0,-1.632 0.296,-1.862 1.82,-1.862 h 1.644 c 2.806,0 3.364,1.073 3.682,4.196 H 5.84 c -0.044,-0.471 -0.065,-1.118 -0.065,-1.84 0,-0.56 0.043,-1.733 0.153,-2.871 -1.523,0.066 -3.639,0.066 -5.139,0.066 -1.347,0 -4.306,0 -6.509,-0.066 v 0.449 c 1.522,0.066 1.818,0.296 1.818,1.928 v 11.133 c 0,1.634 -0.296,1.864 -1.818,1.929 v 0.449 c 0.625,-0.043 1.709,-0.065 2.87,-0.065 1.03,0 2.159,0.022 2.85,0.065 z" /></g><g
           transform="translate(818.6508,224.1805)"
           id="g66"><path
             id="path68"
             style="fill:#ffffff;fill-opacity:1;fill-rule:nonzero;stroke:none"
             d="m 0,0 c 0,-5.018 -2.958,-8.394 -7.132,-8.394 -4.264,0 -7.112,2.993 -7.112,8.132 0,5.018 2.958,8.394 7.133,8.394 C -2.848,8.132 0,5.141 0,0 m -12.009,-0.175 v 0 c 0,-4.777 2.202,-7.814 4.963,-7.814 2.915,0 4.801,3.255 4.801,7.902 0,4.778 -2.193,7.814 -4.954,7.814 -2.926,0 -4.81,-3.255 -4.81,-7.902" /></g><g
           transform="translate(766.6909,202.6018)"
           id="g70"><path
             id="path72"
             style="fill:#ffffff;fill-opacity:1;fill-rule:nonzero;stroke:none"
             d="m 0,0 c 0,-4.887 -2.958,-8.12 -8.12,-8.12 -0.679,0 -2.18,0.066 -3.144,0.066 -1.052,0 -2.158,-0.022 -2.783,-0.066 v 0.449 c 1.522,0.067 1.818,0.296 1.818,1.929 V 5.391 c 0,1.634 -0.296,1.864 -1.818,1.929 v 0.449 c 0.514,-0.032 1.358,-0.077 2.191,-0.077 0.187,0 0.362,0.012 0.548,0.012 1.03,0.022 2.531,0.065 3.386,0.065 C -2.574,7.769 0,5.008 0,0 m -10.147,5.435 v 0 -11.221 c 0,-1.566 0.296,-1.929 1.688,-1.929 4.888,0 6.214,2.741 6.214,7.628 0,5.029 -1.59,7.451 -6.236,7.451 -1.37,0 -1.666,-0.383 -1.666,-1.929" /></g><g
           transform="translate(778.5193,194.4819)"
           id="g74"><path
             id="path76"
             style="fill:#ffffff;fill-opacity:1;fill-rule:nonzero;stroke:none"
             d="m 0,0 c -1.524,0.066 -3.639,0.066 -5.139,0.066 -1.348,0 -4.307,0 -6.509,-0.066 v 0.449 c 1.521,0.067 1.818,0.296 1.818,1.929 v 11.133 c 0,1.634 -0.297,1.864 -1.818,1.928 v 0.45 c 2.202,-0.065 5.161,-0.065 6.509,-0.065 1.368,0 3.297,0 4.69,0.065 -0.111,-1.052 -0.154,-2.137 -0.154,-2.651 0,-0.538 0.022,-1.052 0.065,-1.392 h -0.514 c -0.296,2.652 -0.637,3.529 -3.015,3.529 h -1.862 c -1.523,0 -1.82,-0.23 -1.82,-1.864 V 8.218 h 1.491 c 1.951,0 1.907,1.885 2.083,2.959 h 0.515 c -0.066,-0.953 -0.076,-1.6 -0.076,-2.114 0,-0.418 0.01,-0.746 0.01,-1.074 0,-0.734 0.022,-1.48 0.131,-3.189 H -4.109 C -4.285,6.235 -4.307,7.769 -6.258,7.769 H -7.749 V 2.378 c 0,-1.633 0.297,-1.862 1.82,-1.862 h 1.644 c 2.806,0 3.364,1.007 3.682,3.976 h 0.514 C -0.133,4.087 -0.153,3.496 -0.153,2.871 -0.153,2.312 -0.111,1.139 0,0" /></g><g
           transform="translate(766.0015,188.7489)"
           id="g78"><path
             id="path80"
             style="fill:#ffffff;fill-opacity:1;fill-rule:nonzero;stroke:none"
             d="m 0,0 v -0.45 c -0.593,-0.13 -1.26,-0.602 -1.776,-1.949 l -5.27,-13.599 h -0.187 -0.175 l -5.48,14.114 c -0.449,1.14 -1.072,1.414 -1.544,1.434 V 0 c 0.603,-0.043 1.544,-0.065 2.4,-0.065 1.161,0 2.246,0.022 2.87,0.065 v -0.45 c -1.074,-0.042 -1.588,-0.207 -1.588,-0.832 0,-0.262 0.087,-0.602 0.262,-1.052 l 4.067,-10.782 3.66,9.478 c 0.294,0.768 0.449,1.37 0.449,1.83 0,0.987 -0.679,1.326 -1.962,1.358 V 0 c 0.854,-0.043 1.797,-0.065 2.587,-0.065 0.766,0 1.238,0.022 1.687,0.065" /></g><g
           transform="translate(770.6954,188.2993)"
           id="g82"><path
             id="path84"
             style="fill:#ffffff;fill-opacity:1;fill-rule:nonzero;stroke:none"
             d="m 0,0 c -1.523,-0.065 -1.82,-0.294 -1.82,-1.928 v -11.133 c 0,-1.633 0.297,-1.863 1.82,-1.929 v -0.449 c -0.691,0.044 -1.82,0.066 -2.849,0.066 -1.161,0 -2.246,-0.022 -2.87,-0.066 v 0.449 c 1.522,0.066 1.818,0.296 1.818,1.929 v 11.133 c 0,1.634 -0.296,1.863 -1.818,1.928 v 0.45 c 0.624,-0.043 1.709,-0.065 2.87,-0.065 1.029,0 2.158,0.022 2.849,0.065 z" /></g><g
           transform="translate(784.8312,180.9797)"
           id="g86"><path
             id="path88"
             style="fill:#ffffff;fill-opacity:1;fill-rule:nonzero;stroke:none"
             d="m 0,0 c 0,-4.887 -2.96,-8.12 -8.121,-8.12 -0.679,0 -2.181,0.067 -3.145,0.067 -1.051,0 -2.158,-0.023 -2.783,-0.067 v 0.45 c 1.522,0.066 1.818,0.296 1.818,1.928 V 5.391 c 0,1.634 -0.296,1.864 -1.818,1.929 v 0.449 c 0.514,-0.032 1.359,-0.076 2.191,-0.076 0.187,0 0.363,0.011 0.548,0.011 1.03,0.022 2.532,0.065 3.386,0.065 C -2.575,7.769 0,5.008 0,0 m -10.149,5.435 v 0 -11.221 c 0,-1.566 0.297,-1.929 1.689,-1.929 4.887,0 6.213,2.741 6.213,7.628 0,5.03 -1.59,7.451 -6.235,7.451 -1.37,0 -1.667,-0.383 -1.667,-1.929" /></g><g
           transform="translate(796.515,174.7443)"
           id="g90"><path
             id="path92"
             style="fill:#ffffff;fill-opacity:1;fill-rule:nonzero;stroke:none"
             d="M 0,0 C 0.45,-1.139 1.085,-1.413 1.556,-1.435 V -1.884 C 0.943,-1.84 0,-1.818 -0.855,-1.818 c -1.162,0 -2.235,-0.022 -2.871,-0.066 v 0.449 c 1.086,0.044 1.59,0.208 1.59,0.832 0,0.264 -0.089,0.603 -0.264,1.053 l -1.381,3.682 h -5.413 l -0.921,-2.378 c -0.306,-0.778 -0.449,-1.381 -0.449,-1.84 0,-0.976 0.669,-1.316 1.951,-1.349 v -0.449 c -0.855,0.044 -1.798,0.066 -2.586,0.066 -0.756,0 -1.227,-0.022 -1.677,-0.066 v 0.449 c 0.581,0.131 1.25,0.603 1.764,1.951 l 5.282,13.599 h 0.363 z m -6.455,11.276 v 0 L -9.03,4.581 h 5.084 z" /></g><path
           id="path94"
           style="fill:#ffffff;fill-opacity:1;fill-rule:nonzero;stroke:none"
           d="m 743.683,170.665 h -0.798 v 87.502 h 0.798 z" /><path
           id="path96"
           style="fill:#ffffff;fill-opacity:1;fill-rule:nonzero;stroke:none"
           d="m 593.615,170.665 h -0.798 v 87.502 h 0.798 z" /><path
           id="path98"
           style="fill:#ffffff;fill-opacity:1;fill-rule:nonzero;stroke:none"
           d="m 819.408,241.42 h -36.513 v -0.726 h 36.513 z" /><path
           id="path100"
           style="fill:#ffffff;fill-opacity:1;fill-rule:nonzero;stroke:none"
           d="m 819.408,196.055 h -36.513 v -0.726 h 36.513 z" /><g
           transform="translate(651.594,253.7277)"
           id="g102"><path
             id="path104"
             style="fill:#ffffff;fill-opacity:1;fill-rule:nonzero;stroke:none"
             d="m 0,0 v -3.141 h -23.207 v -60.737 c 0,-9.881 3.752,-13.328 10.033,-13.328 6.281,0 10.877,4.519 14.17,16.774 l 3.063,-0.766 C 1.915,-73.452 -3.6,-82.875 -16.313,-82.875 c -7.201,0 -11.413,1.763 -14.859,5.209 -4.597,4.672 -6.128,10.8 -6.128,21.982 V -3.141 H -52.389 V 0 H -37.3 v 23.973 c 5.132,0.153 10.187,0.765 14.093,2.221 l 0,-26.194 z" /></g><g
           transform="translate(726.7405,190.0029)"
           id="g106"><path
             id="path108"
             style="fill:#ffffff;fill-opacity:1;fill-rule:nonzero;stroke:none"
             d="m 0,0 c 0,-9.422 2.833,-13.788 11.948,-13.788 v -3.293 c -3.293,0.306 -6.588,0.459 -9.728,0.459 -6.128,0 -11.795,-0.612 -16.314,-2.221 v 18.536 c -5.36,-13.634 -15.701,-18.843 -25.734,-18.843 -7.354,0 -12.716,2.222 -16.315,5.975 -3.906,4.212 -5.208,10.646 -5.208,20.527 V 46.72 c 0,9.422 -2.757,13.863 -11.873,13.863 v 3.295 c 3.295,-0.306 6.588,-0.46 9.729,-0.46 6.126,0 11.718,0.612 16.313,2.144 V 3.906 c 0,-9.728 0.613,-18 11.873,-18 12.253,0 21.215,12.408 21.215,28.416 V 46.72 c 0,9.422 -2.834,13.863 -11.948,13.863 v 3.295 c 3.293,-0.306 6.588,-0.46 9.727,-0.46 6.128,0 11.794,0.612 16.315,2.144 z m -12.945,106.233 v 0 c 0,-1.609 -0.69,-3.446 -2.144,-5.361 -4.825,-6.128 -12.409,-10.647 -24.816,-23.82 l -1.685,1.378 c 9.727,15.241 12.407,23.667 17.08,29.794 1.914,2.528 4.059,3.524 5.973,3.524 1.303,0 2.452,-0.383 3.448,-1.149 1.301,-1.073 2.144,-2.603 2.144,-4.366" /></g><g
           transform="translate(234.195,172.7566)"
           id="g110"><path
             id="path112"
             style="fill:#ffffff;fill-opacity:1;fill-rule:nonzero;stroke:none"
             d="m 0,0 c -3.586,0 -11.042,0.604 -16.065,2.219 -17.482,-3.848 -30.678,3.216 -36.021,11.964 -4.6,7.534 -3.69,16.408 2.432,23.742 5.276,7.074 6.612,13.382 6.881,17.054 -0.885,-0.046 -1.782,-0.09 -2.7,-0.135 -7.761,-0.385 -13.855,2.104 -15.529,6.353 -1.096,2.781 -0.828,7.423 6.667,13.743 4.26,3.582 11.971,9.166 12.049,9.222 4.685,3.612 14.402,9.331 15.995,10.232 11.211,6.358 21.038,10.169 26.286,10.194 4.937,-0.023 13.903,-3.385 24.26,-9.059 -0.216,1.491 0.051,2.801 0.78,3.76 0.912,1.199 2.448,1.807 4.567,1.807 h 9.557 c 2.512,0 4.102,-0.539 5.002,-1.695 1.336,-1.717 0.703,-4.218 -0.029,-7.116 -0.658,-2.619 -1.158,-5.672 -1.392,-8.461 1.722,-1.275 7.952,-5.915 11.606,-8.998 7.482,-6.303 7.758,-10.914 6.673,-13.672 -1.663,-4.224 -7.771,-6.698 -15.554,-6.31 l -0.505,0.025 c -0.736,0.037 -1.464,0.073 -2.183,0.11 C 43.046,51.308 44.38,45 49.65,37.925 55.774,30.592 56.684,21.719 52.084,14.185 47.767,7.114 38.32,1.145 25.628,1.144 c -3.014,0 -6.21,0.337 -9.564,1.075 C 11.044,0.605 3.586,0 0,0 m -16.014,4.274 v 0 c 0.108,0 0.216,-0.017 0.321,-0.052 C -11.154,2.702 -3.784,2.019 0,2.019 c 3.785,0 11.155,0.683 15.692,2.202 0.175,0.06 0.363,0.069 0.543,0.028 16.644,-3.761 29.132,2.808 34.126,10.987 4.194,6.869 3.363,14.674 -2.277,21.416 -0.013,0.015 -0.024,0.029 -0.035,0.044 -6.187,8.294 -7.257,15.668 -7.344,19.325 -0.007,0.282 0.104,0.553 0.306,0.749 0.202,0.196 0.479,0.301 0.757,0.283 1.076,-0.058 2.176,-0.112 3.292,-0.168 l 0.505,-0.025 c 6.801,-0.343 12.255,1.682 13.575,5.034 1.193,3.028 -0.972,7.073 -6.094,11.388 -10e-4,0 -10e-4,0 -10e-4,0 -4.198,3.542 -11.875,9.193 -11.952,9.249 -0.279,0.205 -0.434,0.54 -0.409,0.886 0.219,3.045 0.762,6.457 1.49,9.361 0.579,2.287 1.125,4.445 0.394,5.383 -0.473,0.608 -1.62,0.916 -3.409,0.916 h -9.557 c -1.455,0 -2.451,-0.339 -2.96,-1.01 -0.678,-0.891 -0.43,-2.281 -0.222,-3.031 0.039,-0.14 0.079,-0.279 0.119,-0.419 0.082,-0.287 0.164,-0.573 0.234,-0.858 0.098,-0.391 -0.047,-0.803 -0.368,-1.047 -0.322,-0.244 -0.757,-0.273 -1.109,-0.074 -10.924,6.195 -20.383,9.908 -25.301,9.932 -4.908,-0.024 -14.366,-3.737 -25.291,-9.932 -1.573,-0.891 -11.166,-6.534 -15.783,-10.093 -0.101,-0.074 -7.753,-5.615 -11.955,-9.149 -5.133,-4.328 -7.296,-8.397 -6.09,-11.459 1.33,-3.377 6.777,-5.418 13.551,-5.077 1.303,0.064 2.564,0.127 3.809,0.193 0.277,0.015 0.555,-0.087 0.757,-0.283 0.202,-0.196 0.313,-0.467 0.306,-0.749 -0.088,-3.658 -1.159,-11.034 -7.352,-19.325 -0.011,-0.015 -0.022,-0.03 -0.034,-0.044 -5.641,-6.742 -6.469,-14.548 -2.276,-21.417 4.994,-8.178 17.482,-14.747 34.126,-10.986 0.074,0.017 0.148,0.025 0.223,0.025" /></g></g></g></g></svg>